<svg width="28" height="19" viewBox="0 0 28 19" fill="none" xmlns="http://www.w3.org/2000/svg">
<path d="M9.6535 15H8.2135L6.5335 8.424H6.5015L4.8375 15H3.3655L0.7095 6.728H2.2135L4.0855 13.496H4.1175L5.7815 6.728H7.2695L8.9975 13.496H9.0295L10.8855 6.728H12.2935L9.6535 15Z" fill="#2E2E2E"/>
<path d="M16.0266 9.912H20.6506V11.192H16.0266V9.912ZM22.4213 6.728H23.7013V8.472H23.7333C24.064 7.8 24.4693 7.304 24.9493 6.984C25.4293 6.664 26.0373 6.51467 26.7733 6.536V7.976C26.2293 7.976 25.7653 8.05067 25.3813 8.2C24.9973 8.34933 24.688 8.568 24.4533 8.856C24.2186 9.144 24.048 9.496 23.9413 9.912C23.8346 10.3173 23.7813 10.7867 23.7813 11.32V15H22.4213V6.728Z" fill="#2E2E2E"/>
<path d="M25.696 3.966H25.902V4.116H25.696V4.758C25.696 4.778 25.6974 4.794 25.7 4.806C25.704 4.818 25.7107 4.82733 25.72 4.834C25.7294 4.84067 25.742 4.84533 25.758 4.848C25.7754 4.84933 25.7974 4.85 25.824 4.85H25.902V5H25.772C25.728 5 25.69 4.99733 25.658 4.992C25.6274 4.98533 25.602 4.974 25.582 4.958C25.5634 4.942 25.5494 4.91933 25.54 4.89C25.5307 4.86067 25.526 4.822 25.526 4.774V4.116H25.35V3.966H25.526V3.656H25.696V3.966ZM26.0909 3.966H26.2509V4.118H26.2549C26.3322 4.00067 26.4436 3.942 26.5889 3.942C26.6529 3.942 26.7109 3.95533 26.7629 3.982C26.8149 4.00867 26.8516 4.054 26.8729 4.118C26.9076 4.062 26.9529 4.01867 27.0089 3.988C27.0662 3.95733 27.1289 3.942 27.1969 3.942C27.2489 3.942 27.2956 3.948 27.3369 3.96C27.3796 3.97067 27.4156 3.988 27.4449 4.012C27.4756 4.036 27.4989 4.06733 27.5149 4.106C27.5322 4.14333 27.5409 4.18867 27.5409 4.242V5H27.3709V4.322C27.3709 4.29 27.3682 4.26 27.3629 4.232C27.3576 4.204 27.3476 4.18 27.3329 4.16C27.3182 4.13867 27.2976 4.122 27.2709 4.11C27.2456 4.098 27.2122 4.092 27.1709 4.092C27.0869 4.092 27.0209 4.116 26.9729 4.164C26.9249 4.212 26.9009 4.276 26.9009 4.356V5H26.7309V4.322C26.7309 4.28867 26.7276 4.258 26.7209 4.23C26.7156 4.202 26.7056 4.178 26.6909 4.158C26.6762 4.13667 26.6562 4.12067 26.6309 4.11C26.6069 4.098 26.5756 4.092 26.5369 4.092C26.4876 4.092 26.4449 4.102 26.4089 4.122C26.3742 4.142 26.3456 4.166 26.3229 4.194C26.3016 4.222 26.2856 4.25133 26.2749 4.282C26.2656 4.31133 26.2609 4.336 26.2609 4.356V5H26.0909V3.966Z" fill="#2E2E2E" fill-opacity="0.5"/>
<line y1="18.5" x2="28" y2="18.5" stroke="#2FFF00"/>
</svg>
