<svg width="312" height="48" viewBox="0 0 312 48" fill="none" xmlns="http://www.w3.org/2000/svg">
<g clip-path="url(#clip0_547_145)">
<path d="M0.512 12.976H4.8L13.248 41.264H13.376L21.44 12.976H25.984L34.048 41.264H34.176L42.624 12.976H46.912L36.288 46H31.872L23.744 18.224H23.616L15.552 46H11.136L0.512 12.976ZM50.8935 23.088C51.0215 21.168 51.4268 19.504 52.1095 18.096C52.7922 16.688 53.7095 15.536 54.8615 14.64C56.0562 13.744 57.4428 13.0827 59.0215 12.656C60.6002 12.2293 62.3495 12.016 64.2695 12.016C65.7202 12.016 67.1708 12.1653 68.6215 12.464C70.0722 12.72 71.3735 13.232 72.5255 14C73.6775 14.768 74.6162 15.856 75.3415 17.264C76.0668 18.6293 76.4295 20.4213 76.4295 22.64V40.176C76.4295 41.7973 77.2188 42.608 78.7975 42.608C79.2668 42.608 79.6935 42.5227 80.0775 42.352V45.744C79.6082 45.8293 79.1815 45.8933 78.7975 45.936C78.4562 45.9787 78.0082 46 77.4535 46C76.4295 46 75.5975 45.872 74.9575 45.616C74.3602 45.3173 73.8908 44.912 73.5495 44.4C73.2082 43.888 72.9735 43.2907 72.8455 42.608C72.7602 41.8827 72.7175 41.0933 72.7175 40.24H72.5895C71.8642 41.3067 71.1175 42.2667 70.3495 43.12C69.6242 43.9307 68.7922 44.6133 67.8535 45.168C66.9575 45.7227 65.9122 46.1493 64.7175 46.448C63.5655 46.7467 62.1788 46.896 60.5575 46.896C59.0215 46.896 57.5708 46.704 56.2055 46.32C54.8828 45.9787 53.7095 45.424 52.6855 44.656C51.7042 43.8453 50.9148 42.8427 50.3175 41.648C49.7628 40.4107 49.4855 38.96 49.4855 37.296C49.4855 34.992 49.9975 33.2 51.0215 31.92C52.0455 30.5973 53.3895 29.5947 55.0535 28.912C56.7602 28.2293 58.6588 27.76 60.7495 27.504C62.8828 27.2053 65.0375 26.928 67.2135 26.672C68.0668 26.5867 68.8135 26.48 69.4535 26.352C70.0935 26.224 70.6268 26.0107 71.0535 25.712C71.4802 25.3707 71.8002 24.9227 72.0135 24.368C72.2695 23.8133 72.3975 23.088 72.3975 22.192C72.3975 20.8267 72.1628 19.7173 71.6935 18.864C71.2668 17.968 70.6482 17.264 69.8375 16.752C69.0695 16.24 68.1522 15.8987 67.0855 15.728C66.0615 15.5147 64.9522 15.408 63.7575 15.408C61.1975 15.408 59.1068 16.0267 57.4855 17.264C55.8642 18.4587 55.0108 20.4 54.9255 23.088H50.8935ZM72.3975 27.952H72.2695C72.0135 28.4213 71.5228 28.7627 70.7975 28.976C70.0722 29.1893 69.4322 29.3387 68.8775 29.424C67.1708 29.7227 65.4002 30 63.5655 30.256C61.7735 30.4693 60.1308 30.8107 58.6375 31.28C57.1442 31.7493 55.9068 32.432 54.9255 33.328C53.9868 34.1813 53.5175 35.4187 53.5175 37.04C53.5175 38.064 53.7095 38.9813 54.0935 39.792C54.5202 40.56 55.0748 41.2427 55.7575 41.84C56.4402 42.3947 57.2295 42.8213 58.1255 43.12C59.0215 43.4187 59.9388 43.568 60.8775 43.568C62.4135 43.568 63.8855 43.3333 65.2935 42.864C66.7015 42.3947 67.9175 41.712 68.9415 40.816C70.0082 39.92 70.8402 38.832 71.4375 37.552C72.0775 36.272 72.3975 34.8213 72.3975 33.2V27.952ZM84.465 12.976H88.177V20.72H88.305C89.329 18.032 90.9077 15.9627 93.041 14.512C95.217 13.0613 97.7983 12.4 100.785 12.528V16.56C98.9503 16.4747 97.2863 16.7307 95.793 17.328C94.2997 17.8827 92.9983 18.6933 91.889 19.76C90.8223 20.8267 89.9903 22.1067 89.393 23.6C88.7957 25.0507 88.497 26.6507 88.497 28.4V46H84.465V12.976ZM132.583 46H128.872V39.728H128.744C128.317 40.7947 127.677 41.776 126.824 42.672C126.013 43.568 125.074 44.336 124.008 44.976C122.941 45.5733 121.789 46.0427 120.552 46.384C119.357 46.7253 118.162 46.896 116.968 46.896C114.45 46.896 112.253 46.448 110.376 45.552C108.541 44.6133 107.005 43.3547 105.768 41.776C104.53 40.1547 103.613 38.2987 103.016 36.208C102.418 34.0747 102.12 31.8347 102.12 29.488C102.12 27.1413 102.418 24.9227 103.016 22.832C103.613 20.6987 104.53 18.8427 105.768 17.264C107.005 15.6427 108.541 14.3627 110.376 13.424C112.253 12.4853 114.45 12.016 116.968 12.016C118.205 12.016 119.4 12.1653 120.552 12.464C121.746 12.7627 122.856 13.232 123.88 13.872C124.904 14.4693 125.8 15.216 126.568 16.112C127.378 17.008 127.997 18.0533 128.424 19.248H128.552V0.303997H132.583V46ZM106.152 29.488C106.152 31.1947 106.344 32.9013 106.728 34.608C107.154 36.272 107.794 37.7653 108.648 39.088C109.544 40.4107 110.674 41.4987 112.04 42.352C113.405 43.1627 115.048 43.568 116.968 43.568C119.101 43.568 120.893 43.1627 122.344 42.352C123.837 41.4987 125.032 40.4107 125.928 39.088C126.866 37.7653 127.528 36.272 127.912 34.608C128.338 32.9013 128.552 31.1947 128.552 29.488C128.552 27.7813 128.338 26.096 127.912 24.432C127.528 22.7253 126.866 21.2107 125.928 19.888C125.032 18.5653 123.837 17.4987 122.344 16.688C120.893 15.8347 119.101 15.408 116.968 15.408C115.048 15.408 113.405 15.8347 112.04 16.688C110.674 17.4987 109.544 18.5653 108.648 19.888C107.794 21.2107 107.154 22.7253 106.728 24.432C106.344 26.096 106.152 27.7813 106.152 29.488Z" fill="#2E2E2E"/>
<line x1="153" y1="21" x2="185" y2="21" stroke="#2FFF00" stroke-width="2"/>
<path d="M192.84 13.476H196.552V21.22H196.68C197.704 18.532 199.283 16.4627 201.416 15.012C203.592 13.5613 206.173 12.9 209.16 13.028V17.06C207.325 16.9747 205.661 17.2307 204.168 17.828C202.675 18.3827 201.373 19.1933 200.264 20.26C199.197 21.3267 198.365 22.6067 197.768 24.1C197.171 25.5507 196.872 27.1507 196.872 28.9V46.5H192.84V13.476ZM225.855 15.908C223.935 15.908 222.249 16.3133 220.799 17.124C219.348 17.9347 218.132 19.0013 217.151 20.324C216.212 21.6467 215.487 23.1613 214.975 24.868C214.505 26.532 214.271 28.2387 214.271 29.988C214.271 31.7373 214.505 33.4653 214.975 35.172C215.487 36.836 216.212 38.3293 217.151 39.652C218.132 40.9747 219.348 42.0413 220.799 42.852C222.249 43.6627 223.935 44.068 225.855 44.068C227.775 44.068 229.46 43.6627 230.911 42.852C232.361 42.0413 233.556 40.9747 234.495 39.652C235.476 38.3293 236.201 36.836 236.671 35.172C237.183 33.4653 237.439 31.7373 237.439 29.988C237.439 28.2387 237.183 26.532 236.671 24.868C236.201 23.1613 235.476 21.6467 234.495 20.324C233.556 19.0013 232.361 17.9347 230.911 17.124C229.46 16.3133 227.775 15.908 225.855 15.908ZM225.855 12.516C228.372 12.516 230.591 12.9853 232.511 13.924C234.473 14.8627 236.116 16.1213 237.439 17.7C238.761 19.2787 239.764 21.1347 240.447 23.268C241.129 25.3587 241.471 27.5987 241.471 29.988C241.471 32.3773 241.129 34.6387 240.447 36.772C239.764 38.8627 238.761 40.6973 237.439 42.276C236.116 43.8547 234.473 45.1133 232.511 46.052C230.591 46.948 228.372 47.396 225.855 47.396C223.337 47.396 221.097 46.948 219.135 46.052C217.215 45.1133 215.593 43.8547 214.271 42.276C212.948 40.6973 211.945 38.8627 211.263 36.772C210.58 34.6387 210.239 32.3773 210.239 29.988C210.239 27.5987 210.58 25.3587 211.263 23.268C211.945 21.1347 212.948 19.2787 214.271 17.7C215.593 16.1213 217.215 14.8627 219.135 13.924C221.097 12.9853 223.337 12.516 225.855 12.516ZM247.465 0.803997H251.497V19.748H251.625C252.052 18.5533 252.649 17.508 253.417 16.612C254.228 15.716 255.145 14.9693 256.169 14.372C257.193 13.732 258.302 13.2627 259.497 12.964C260.692 12.6653 261.886 12.516 263.081 12.516C265.598 12.516 267.774 12.9853 269.609 13.924C271.486 14.8627 273.044 16.1427 274.281 17.764C275.518 19.3427 276.436 21.1987 277.033 23.332C277.63 25.4227 277.929 27.6413 277.929 29.988C277.929 32.3347 277.63 34.5747 277.033 36.708C276.436 38.7987 275.518 40.6547 274.281 42.276C273.044 43.8547 271.486 45.1133 269.609 46.052C267.774 46.948 265.598 47.396 263.081 47.396C260.393 47.396 257.982 46.7773 255.849 45.54C253.758 44.3027 252.244 42.532 251.305 40.228H251.177V46.5H247.465V0.803997ZM273.897 29.988C273.897 28.2813 273.684 26.596 273.257 24.932C272.873 23.2253 272.233 21.7107 271.337 20.388C270.484 19.0653 269.374 17.9987 268.009 17.188C266.644 16.3347 265.001 15.908 263.081 15.908C260.948 15.908 259.134 16.3347 257.641 17.188C256.19 17.9987 254.996 19.0653 254.057 20.388C253.161 21.7107 252.5 23.2253 252.073 24.932C251.689 26.596 251.497 28.2813 251.497 29.988C251.497 31.6947 251.689 33.4013 252.073 35.108C252.5 36.772 253.161 38.2653 254.057 39.588C254.996 40.9107 256.19 41.9987 257.641 42.852C259.134 43.6627 260.948 44.068 263.081 44.068C265.001 44.068 266.644 43.6627 268.009 42.852C269.374 41.9987 270.484 40.9107 271.337 39.588C272.233 38.2653 272.873 36.772 273.257 35.108C273.684 33.4013 273.897 31.6947 273.897 29.988ZM307.959 27.684C307.916 26.148 307.639 24.676 307.127 23.268C306.658 21.86 305.975 20.6227 305.079 19.556C304.183 18.4467 303.095 17.572 301.815 16.932C300.535 16.2493 299.084 15.908 297.463 15.908C295.799 15.908 294.327 16.2493 293.047 16.932C291.767 17.572 290.679 18.4467 289.783 19.556C288.887 20.6227 288.162 21.8813 287.607 23.332C287.095 24.74 286.754 26.1907 286.583 27.684H307.959ZM286.583 31.076C286.583 32.5267 286.775 34.0413 287.159 35.62C287.586 37.156 288.247 38.5427 289.143 39.78C290.039 41.0173 291.17 42.0413 292.535 42.852C293.9 43.6627 295.543 44.068 297.463 44.068C300.407 44.068 302.711 43.3 304.375 41.764C306.039 40.228 307.191 38.18 307.831 35.62H311.863C311.01 39.3747 309.431 42.276 307.127 44.324C304.866 46.372 301.644 47.396 297.463 47.396C294.86 47.396 292.599 46.948 290.679 46.052C288.802 45.1133 287.266 43.8547 286.071 42.276C284.876 40.6547 283.98 38.7987 283.383 36.708C282.828 34.5747 282.551 32.3347 282.551 29.988C282.551 27.812 282.828 25.6787 283.383 23.588C283.98 21.4973 284.876 19.6413 286.071 18.02C287.266 16.356 288.802 15.0333 290.679 14.052C292.599 13.028 294.86 12.516 297.463 12.516C300.108 12.516 302.37 13.0493 304.247 14.116C306.124 15.1827 307.639 16.5907 308.791 18.34C309.986 20.0467 310.839 22.0307 311.351 24.292C311.863 26.5107 312.076 28.772 311.991 31.076H286.583Z" fill="#2E2E2E"/>
<path d="M305.588 2.898H306.206V3.348H305.588V5.274C305.588 5.334 305.592 5.382 305.6 5.418C305.612 5.454 305.632 5.482 305.66 5.502C305.688 5.522 305.726 5.536 305.774 5.544C305.826 5.548 305.892 5.55 305.972 5.55H306.206V6H305.816C305.684 6 305.57 5.992 305.474 5.976C305.382 5.956 305.306 5.922 305.246 5.874C305.19 5.826 305.148 5.758 305.12 5.67C305.092 5.582 305.078 5.466 305.078 5.322V3.348H304.55V2.898H305.078V1.968H305.588V2.898ZM306.773 2.898H307.253V3.354H307.265C307.497 3.002 307.831 2.826 308.267 2.826C308.459 2.826 308.633 2.866 308.789 2.946C308.945 3.026 309.055 3.162 309.119 3.354C309.223 3.186 309.359 3.056 309.527 2.964C309.699 2.872 309.887 2.826 310.091 2.826C310.247 2.826 310.387 2.844 310.511 2.88C310.639 2.912 310.747 2.964 310.835 3.036C310.927 3.108 310.997 3.202 311.045 3.318C311.097 3.43 311.123 3.566 311.123 3.726V6H310.613V3.966C310.613 3.87 310.605 3.78 310.589 3.696C310.573 3.612 310.543 3.54 310.499 3.48C310.455 3.416 310.393 3.366 310.313 3.33C310.237 3.294 310.137 3.276 310.013 3.276C309.761 3.276 309.563 3.348 309.419 3.492C309.275 3.636 309.203 3.828 309.203 4.068V6H308.693V3.966C308.693 3.866 308.683 3.774 308.663 3.69C308.647 3.606 308.617 3.534 308.573 3.474C308.529 3.41 308.469 3.362 308.393 3.33C308.321 3.294 308.227 3.276 308.111 3.276C307.963 3.276 307.835 3.306 307.727 3.366C307.623 3.426 307.537 3.498 307.469 3.582C307.405 3.666 307.357 3.754 307.325 3.846C307.297 3.934 307.283 4.008 307.283 4.068V6H306.773V2.898Z" fill="#2E2E2E" fill-opacity="0.5"/>
</g>
<defs>
<clipPath id="clip0_547_145">
<rect width="312" height="48" fill="white"/>
</clipPath>
</defs>
</svg>
